HIERARCHY
ROOT Root
{
	OFFSET 0.00 0.00 0.00
	CHANNELS 6 Xposition Yposition Zposition Xrotation Yrotation Zrotation
	JOINT L_Femur
	{
		OFFSET 3.25772 0.00000 0.00000
		CHANNELS 3 Xrotation Yrotation Zrotation
		JOINT L_Tibia
		{
			OFFSET 0.00000 -15.35355 0.00000
			CHANNELS 3 Xrotation Yrotation Zrotation
			JOINT L_Foot
			{
				OFFSET 0.00000 -16.48949 0.00000
				CHANNELS 3 Xrotation Yrotation Zrotation
				JOINT L_Toe
				{
					OFFSET 0.00000 -1.72224 6.42750
					CHANNELS 3 Xrotation Yrotation Zrotation
					End Site
					{
						OFFSET 0.00000 0.00000 2.95275
					}
				}
			}
		}
	}
	JOINT R_Femur
	{
		OFFSET -3.25772 0.00000 0.00000
		CHANNELS 3 Xrotation Yrotation Zrotation
		JOINT R_Tibia
		{
			OFFSET 0.00000 -15.35355 0.00000
			CHANNELS 3 Xrotation Yrotation Zrotation
			JOINT R_Foot
			{
				OFFSET 0.00000 -16.48949 0.00000
				CHANNELS 3 Xrotation Yrotation Zrotation
				JOINT R_Toe
				{
					OFFSET 0.00000 -1.72224 6.42750
					CHANNELS 3 Xrotation Yrotation Zrotation
					End Site
					{
						OFFSET 0.00000 0.00000 2.95275
					}
				}
			}
		}
	}
	JOINT LowerBack
	{
		OFFSET 0.00000 0.03937 0.00000
		CHANNELS 3 Xrotation Yrotation Zrotation
		JOINT Thorax
		{
			OFFSET 0.00000 10.14986 0.00000
			CHANNELS 3 Xrotation Yrotation Zrotation
			JOINT Neck
			{
				OFFSET 0.00000 9.84250 0.00000
				CHANNELS 3 Xrotation Yrotation Zrotation
				JOINT head
				{
					OFFSET 0.00000 4.54023 0.00000
					CHANNELS 3 Xrotation Yrotation Zrotation
					End Site
					{
						OFFSET 0.00000 4.52755 0.00000
					}
				}
			}
			JOINT L_Collar
			{
				OFFSET 0.00000 9.84250 0.00000
				CHANNELS 3 Xrotation Yrotation Zrotation
				JOINT L_Humerus
				{
					OFFSET 7.21510 -0.00003 0.00000
					CHANNELS 3 Xrotation Yrotation Zrotation
					JOINT L_Elbow
					{
						OFFSET 10.66411 -0.00004 0.00000
						CHANNELS 3 Xrotation Yrotation Zrotation
						JOINT L_Wrist
						{
							OFFSET 8.93656 -0.00003 0.00000
							CHANNELS 3 Xrotation Yrotation Zrotation
							JOINT L_Wrist_End
							{
								OFFSET 3.93700 -0.00001 0.00000
								CHANNELS 3 Xrotation Yrotation Zrotation
							}
						}
					}
				}
			}
			JOINT R_Collar
			{
				OFFSET 0.00000 9.84250 0.00000
				CHANNELS 3 Xrotation Yrotation Zrotation
				JOINT R_Humerus
				{
					OFFSET -7.21510 -0.00003 0.00000
					CHANNELS 3 Xrotation Yrotation Zrotation
					JOINT R_Elbow
					{
						OFFSET -10.66411 -0.00004 0.00000
						CHANNELS 3 Xrotation Yrotation Zrotation
						JOINT R_Wrist
						{
							OFFSET -8.93656 -0.00003 0.00000
							CHANNELS 3 Xrotation Yrotation Zrotation
							JOINT R_Wrist_End
							{
								OFFSET -5.41338 -0.00002 0.00000
								CHANNELS 3 Xrotation Yrotation Zrotation
							}
						}
					}
				}
			}
		}
	}
}
MOTION
Frames: 12
Frame Time: 0.008333
 5.2426 32.8281 52.5040 2.7817 -8.2218 1.5315 -13.7337 15.6075 5.2288 4.5211 -0.0000 0.0000 -0.4834 0.1942 -4.1917 -35.0729 0.0000 -0.0000 11.4380 4.1792 -6.0921 23.4930 -0.0000 0.0000 -5.9244 -4.6588 0.8080 -48.0371 0.0000 0.0000 -18.4293 6.1161 -1.1400 29.9122 4.6273 -6.9763 -10.4244 -8.2588 2.8690 -0.3829 -19.3033 -12.0144 19.4213 8.6347 3.3569 -12.0256 -42.1314 -75.3704 -0.0000 -12.8786 -0.0000 0.6955 3.9556 15.7767 -0.0000 0.0000 -0.0000 12.0623 3.5030 -5.1749 -11.8826 55.5809 63.2305 -0.0002 43.4089 0.0001 -8.8472 -16.2886 -17.1165 -0.0000 0.0000 -0.0000
 5.3603 32.8733 52.8172 2.8000 -7.9613 1.5515 -13.0748 15.1889 4.8911 4.3546 -0.0000 -0.0000 -0.1991 0.1140 -4.3940 -35.2268 0.0000 0.0000 11.0420 3.2286 -6.4896 24.7445 -0.0000 0.0000 -4.9290 -3.6736 1.5608 -48.8121 0.0000 0.0000 -18.5319 6.0461 -1.0817 29.8751 4.4017 -7.1334 -10.7338 -8.3832 2.7733 0.2995 -19.0911 -11.8080 19.7930 8.5168 3.3474 -12.3683 -42.2688 -75.1881 -0.0000 -13.1331 -0.0000 0.9206 4.3129 15.8277 -0.0000 -0.0000 0.0000 12.2853 3.2277 -5.1369 -11.9100 55.2059 63.6653 -0.0002 43.2126 0.0001 -8.8335 -16.5228 -16.7021 -0.0000 0.0000 -0.0000
 5.4827 32.9127 53.1109 2.7796 -7.8008 1.6048 -12.3826 15.7099 4.5401 3.9922 -0.0000 0.0000 0.1660 -0.7606 -4.6900 -35.4546 0.0000 0.0000 10.5309 2.8403 -6.9023 26.3028 -0.0000 0.0000 -3.8475 -2.9572 1.8549 -49.4310 0.0000 0.0000 -18.5835 6.0423 -1.0006 29.8467 4.2048 -7.3563 -10.8074 -8.5747 2.6724 0.6957 -18.9483 -11.5263 19.7845 8.5140 3.5960 -12.8394 -42.5908 -75.3993 -0.0000 -13.0268 -0.0000 0.7594 4.4262 15.6509 -0.0000 -0.0000 0.0000 12.2312 3.1518 -5.2389 -11.6353 54.5345 64.2692 -0.0002 43.1728 0.0001 -8.9907 -16.6109 -16.6752 -0.0000 0.0000 -0.0000
 5.5821 32.9496 53.3835 2.7545 -7.6670 1.4976 -11.9456 15.4742 4.4278 4.0927 -0.0000 -0.0000 0.2145 -0.8752 -4.7686 -35.2071 0.0000 -0.0000 9.8193 2.5178 -7.0757 28.0912 -0.0000 0.0000 -3.0176 -2.3773 2.1068 -50.4423 0.0000 0.0000 -18.5298 5.9146 -1.0308 29.7060 4.0892 -7.3130 -10.6399 -8.4098 2.8602 0.6564 -18.9498 -11.6040 19.5250 8.4595 3.7007 -12.9950 -42.7120 -75.6254 -0.0000 -12.9547 -0.0000 1.0402 4.3480 15.7922 -0.0000 -0.0000 0.0000 12.6326 2.8942 -5.1699 -11.5545 54.3074 64.2858 -0.0002 43.0531 0.0001 -9.0773 -16.9388 -16.7511 -0.0000 -0.0000 0.0000
 5.6924 32.9813 53.6813 2.7241 -7.5266 1.5017 -11.2541 15.8815 4.1102 3.7673 -0.0000 0.0000 0.3919 -1.4702 -4.6447 -35.0262 0.0000 -0.0000 9.3029 2.2137 -7.4140 29.6982 -0.0000 0.0000 -2.2055 -1.7968 1.9761 -50.2001 0.0000 0.0000 -18.4764 5.8099 -0.9641 29.4991 3.8435 -7.4513 -10.7557 -8.4700 2.7515 1.0966 -18.7293 -11.5011 19.5506 8.3019 3.7284 -12.7583 -42.9191 -75.3089 -0.0000 -13.2994 -0.0000 1.1065 4.3674 15.7272 -0.0000 -0.0000 0.0000 12.8221 2.7701 -5.2347 -11.6381 53.4770 65.0470 -0.0002 43.0701 0.0001 -8.8751 -17.0507 -16.4359 -0.0000 0.0000 -0.0000
 5.7798 33.0107 53.9649 2.6562 -7.4129 1.4090 -10.9090 16.0736 3.9860 4.1033 -0.0000 0.0000 0.1832 -1.8343 -4.4921 -34.9764 0.0000 0.0000 8.6075 2.2316 -7.5155 31.7243 -0.0000 0.0000 -1.5052 -1.6820 1.8144 -50.0777 0.0000 0.0000 -18.4563 5.7087 -1.0115 29.4306 3.7508 -7.4267 -10.8266 -8.5253 2.7821 1.2826 -18.7171 -11.3887 19.2161 8.2843 3.9291 -12.7136 -43.1143 -75.4090 -0.0001 -13.7167 -0.0000 1.5223 4.7935 15.7395 -0.0000 -0.0000 0.0000 13.1001 2.5476 -5.1554 -11.1957 53.2922 64.8948 -0.0002 43.0467 0.0001 -9.6388 -16.7754 -16.6650 -0.0000 0.0000 -0.0000
 5.8928 33.0353 54.2513 2.5396 -7.2055 1.3934 -10.3373 16.9518 3.6864 4.0754 -0.0000 -0.0000 0.1397 -2.9151 -4.2360 -34.8716 0.0000 -0.0000 7.8644 1.7191 -7.8259 33.8274 -0.0000 0.0000 -1.0437 -1.2445 1.8422 -49.3718 0.0000 0.0000 -18.3472 5.6602 -0.9849 29.3269 3.6359 -7.4991 -10.9596 -8.5471 2.9437 1.5514 -18.6439 -11.5398 19.1321 8.1493 4.0668 -12.7632 -43.8654 -75.2471 -0.0001 -13.8267 -0.0000 0.5234 4.5818 16.0428 -0.0000 0.0000 -0.0000 12.9600 2.3271 -5.1022 -10.7668 52.4044 65.3840 -0.0002 42.9879 0.0001 -9.6123 -16.4355 -16.5863 -0.0000 -0.0000 0.0000
 5.9745 33.0544 54.5155 2.4338 -7.3885 1.3041 -9.7691 17.4026 3.6074 4.0489 -0.0000 0.0000 -0.0324 -3.3744 -4.1085 -34.5994 0.0000 0.0000 6.9650 1.9155 -7.9955 36.1718 -0.0000 0.0000 -0.6254 -0.9970 2.0349 -48.5208 0.0000 0.0000 -18.2774 5.6189 -0.9889 29.2571 3.5956 -7.4897 -10.8091 -8.2902 3.0044 1.4633 -18.4713 -11.3757 18.9741 8.1222 4.1888 -12.8536 -44.1038 -75.2630 -0.0001 -14.0841 -0.0000 0.1637 4.3743 16.1942 -0.0000 0.0000 -0.0000 13.3910 2.2619 -4.9646 -10.4446 51.9325 65.0461 -0.0002 43.1073 0.0001 -10.0470 -16.4822 -16.3544 -0.0000 0.0000 -0.0000
 6.0567 33.0719 54.7775 2.3663 -7.3170 1.2066 -9.2369 17.8896 3.4801 3.9451 -0.0000 0.0000 -0.1652 -4.0276 -3.8114 -34.5044 0.0000 -0.0000 6.1319 2.0690 -8.0126 38.4015 -0.0000 0.0000 -0.2542 -1.0877 1.9080 -47.5237 0.0000 0.0000 -18.2613 5.4669 -1.0316 29.2385 3.4468 -7.4542 -10.8119 -8.0287 3.0567 1.4776 -18.2962 -11.2082 19.0242 7.9312 4.3313 -13.0574 -44.0602 -75.2216 -0.0001 -14.5206 -0.0000 0.4265 4.2116 16.2319 -0.0000 -0.0000 0.0000 13.7522 2.0709 -4.8719 -10.3268 51.6446 64.9562 -0.0002 43.0907 0.0001 -10.4199 -16.4986 -16.3481 -0.0000 0.0000 -0.0000
 6.1606 33.0891 55.0478 2.2380 -7.3524 1.1320 -8.6414 17.8073 3.2808 4.0171 -0.0000 0.0000 -0.4501 -3.9542 -3.6748 -34.1718 0.0000 -0.0000 5.3025 2.3075 -8.1733 40.6988 -0.0000 0.0000 0.2834 -0.8579 2.3438 -46.1139 0.0000 0.0000 -18.2121 5.4168 -0.9985 29.2619 3.4161 -7.4009 -10.6518 -7.9286 3.0436 1.2264 -18.2122 -11.0942 18.9828 7.7399 4.2947 -13.0454 -44.3088 -74.9178 -0.0001 -15.0375 -0.0000 0.3815 3.9118 16.3147 -0.0000 0.0000 -0.0000 13.7175 1.9253 -4.7956 -9.6412 51.0655 64.8559 -0.0002 43.2752 0.0001 -10.7588 -16.4822 -16.4835 -0.0000 0.0000 -0.0000
 6.2337 33.1055 55.3058 2.0737 -7.3618 1.0479 -7.9529 18.2723 3.1478 3.8597 0.0000 0.0000 -0.6011 -4.4805 -3.4832 -34.0272 0.0000 -0.0000 4.3804 2.4806 -8.2305 43.1146 -0.0000 0.0000 0.6992 -0.8980 2.3833 -44.5844 0.0000 0.0000 -18.0904 5.2710 -1.1072 29.2202 3.3190 -7.3340 -10.7542 -8.1428 3.0304 1.5718 -18.1932 -10.8366 18.7107 7.8563 4.4217 -13.1609 -44.8184 -74.9286 -0.0001 -15.2030 -0.0000 -0.0391 3.5424 16.5557 -0.0000 -0.0000 0.0000 13.8050 1.9600 -4.6781 -9.0598 50.5534 64.6614 -0.0002 43.3981 0.0001 -11.3073 -16.4482 -16.5284 -0.0000 -0.0000 0.0000
 6.3168 33.1218 55.5701 1.7618 -7.2277 0.9810 -7.1951 17.8167 2.9327 3.9800 -0.0000 0.0000 -0.9520 -4.2078 -3.2162 -33.7846 0.0000 -0.0000 3.7381 2.4819 -8.3295 45.3196 -0.0000 0.0000 1.2242 -0.9557 2.6047 -43.1659 0.0000 -0.0000 -17.8768 5.0639 -1.2493 29.1838 3.2304 -7.1697 -10.3783 -8.1228 2.8871 1.3639 -18.0456 -10.5060 19.2052 7.7105 4.3572 -13.5571 -45.2591 -74.5406 -0.0001 -15.8514 -0.0000 -0.1259 3.9721 16.7149 -0.0000 0.0000 -0.0000 14.0332 1.9459 -4.6734 -8.7572 49.7965 64.7227 -0.0002 43.4256 0.0001 -11.5503 -16.2107 -16.5373 -0.0000 -0.0000 0.0000
